<?xml version="1.0" encoding="utf-8"?>
<!-- Svg Vector Icons : http://www.onlinewebfonts.com/icon -->
<!DOCTYPE svg PUBLIC "-//W3C//DTD SVG 1.1//EN" "http://www.w3.org/Graphics/SVG/1.1/DTD/svg11.dtd">
<svg version="1.1" xmlns="http://www.w3.org/2000/svg" xmlns:xlink="http://www.w3.org/1999/xlink" x="0px" y="0px" viewBox="0 0 256 256" enable-background="new 0 0 256 256" xml:space="preserve">
<metadata> Svg Vector Icons : http://www.onlinewebfonts.com/icon </metadata>
<g><g><path fill="#000000" d="M128,10C62.8,10,10,62.8,10,128c0,65.2,52.8,118,118,118c65.2,0,118-52.8,118-118C246,62.8,193.2,10,128,10z M127.8,226.1c-54.3,0-98.3-44-98.3-98.4c0-54.3,44-98.3,98.3-98.3c54.3,0,98.3,44,98.3,98.3C226.2,182.1,182.2,226.1,127.8,226.1z"/><path fill="#000000" d="M183.4,81.5c-3,0-5.7,1.4-7.5,3.5l-65.7,65.6l-30.5-30.5l0,0c-1.8-1.9-4.3-3.1-7.2-3.1c-5.5,0-9.9,4.4-9.9,9.9c0,2.8,1.2,5.4,3.1,7.2l30.4,30.4l0,0l6.5,6.5c1.8,2,4.5,3.3,7.4,3.3c2.8,0,5.3-1.2,7.1-3h0l72.4-72.4c2.2-1.8,3.7-4.6,3.7-7.7C193.3,85.9,188.9,81.5,183.4,81.5z"/></g></g>
</svg>